<svg width="32" height="32" viewBox="0 0 32 32" fill="none" xmlns="http://www.w3.org/2000/svg">
<mask id="mask0_366_94" style="mask-type:alpha" maskUnits="userSpaceOnUse" x="0" y="0" width="32" height="32">
<rect width="32" height="32" fill="#D9D9D9"/>
</mask>
<g mask="url(#mask0_366_94)">
<rect x="1.60742" y="6" width="28.7838" height="17.7365" rx="1.21622" stroke="#223977" stroke-width="1.21622"/>
<path d="M1 22.3175H31V25.6621C31 26.2778 30.5009 26.777 29.8851 26.777H2.31757C1.58989 26.777 1 26.1871 1 25.4594V22.3175Z" fill="#223977"/>
<path fill-rule="evenodd" clip-rule="evenodd" d="M19.7155 8.93909C19.5094 8.93909 19.3118 9.02146 19.1661 9.16809C19.0203 9.31471 18.9385 9.51358 18.9385 9.72094V10.8937C18.9385 10.9974 18.9794 11.0968 19.0523 11.1701C19.1251 11.2435 19.2239 11.2846 19.327 11.2846H25.5432C25.6462 11.2846 25.7451 11.2435 25.8179 11.1701C25.8908 11.0968 25.9317 10.9974 25.9317 10.8937V9.72094C25.9317 9.51358 25.8499 9.31471 25.7041 9.16809C25.5584 9.02146 25.3608 8.93909 25.1547 8.93909H19.7155ZM23.2121 9.72094C23.1091 9.72094 23.0103 9.76213 22.9374 9.83544C22.8645 9.90875 22.8236 10.0082 22.8236 10.1119C22.8236 10.2155 22.8645 10.315 22.9374 10.3883C23.0103 10.4616 23.1091 10.5028 23.2121 10.5028H23.216C23.3191 10.5028 23.4179 10.4616 23.4907 10.3883C23.5636 10.315 23.6045 10.2155 23.6045 10.1119C23.6045 10.0082 23.5636 9.90875 23.4907 9.83544C23.4179 9.76213 23.3191 9.72094 23.216 9.72094H23.2121ZM24.3777 9.72094C24.2746 9.72094 24.1758 9.76213 24.1029 9.83544C24.0301 9.90875 23.9892 10.0082 23.9892 10.1119C23.9892 10.2155 24.0301 10.315 24.1029 10.3883C24.1758 10.4616 24.2746 10.5028 24.3777 10.5028H24.3816C24.4846 10.5028 24.5834 10.4616 24.6563 10.3883C24.7291 10.315 24.7701 10.2155 24.7701 10.1119C24.7701 10.0082 24.7291 9.90875 24.6563 9.83544C24.5834 9.76213 24.4846 9.72094 24.3816 9.72094H24.3777ZM18.9385 13.6302V12.4574C18.9385 12.3537 18.9794 12.2543 19.0523 12.181C19.1251 12.1077 19.2239 12.0665 19.327 12.0665H25.5432C25.6462 12.0665 25.7451 12.1077 25.8179 12.181C25.8908 12.2543 25.9317 12.3537 25.9317 12.4574V13.6302C25.9317 13.8376 25.8499 14.0364 25.7041 14.1831C25.5584 14.3297 25.3608 14.4121 25.1547 14.4121H19.7155C19.5094 14.4121 19.3118 14.3297 19.1661 14.1831C19.0203 14.0364 18.9385 13.8376 18.9385 13.6302ZM23.2121 12.8484C23.1091 12.8484 23.0103 12.8895 22.9374 12.9629C22.8645 13.0362 22.8236 13.1356 22.8236 13.2393C22.8236 13.343 22.8645 13.4424 22.9374 13.5157C23.0103 13.589 23.1091 13.6302 23.2121 13.6302H23.216C23.3191 13.6302 23.4179 13.589 23.4907 13.5157C23.5636 13.4424 23.6045 13.343 23.6045 13.2393C23.6045 13.1356 23.5636 13.0362 23.4907 12.9629C23.4179 12.8895 23.3191 12.8484 23.216 12.8484H23.2121ZM24.3777 12.8484C24.2746 12.8484 24.1758 12.8895 24.1029 12.9629C24.0301 13.0362 23.9892 13.1356 23.9892 13.2393C23.9892 13.343 24.0301 13.4424 24.1029 13.5157C24.1758 13.589 24.2746 13.6302 24.3777 13.6302H24.3816C24.4846 13.6302 24.5834 13.589 24.6563 13.5157C24.7291 13.4424 24.7701 13.343 24.7701 13.2393C24.7701 13.1356 24.7291 13.0362 24.6563 12.9629C24.5834 12.8895 24.4846 12.8484 24.3816 12.8484H24.3777Z" fill="#223C81"/>
<path d="M5.32458 11.4194V10.7613L7.95705 9.6021V10.3593L6.15471 11.0829L6.17901 11.0436V11.1371L6.15471 11.0978L7.95705 11.8214V12.5786L5.32458 11.4194ZM10.4156 8.61305L9.18167 13.1974H8.49551L9.72948 8.61305H10.4156ZM13.587 11.4194L10.9546 12.5786V11.8214L12.7569 11.0978L12.7326 11.1371V11.0436L12.7569 11.0829L10.9546 10.3593V9.6021L13.587 10.7613V11.4194Z" fill="#223C81"/>
<path d="M4.95215 15.8309H22.3846" stroke="#223C81" stroke-width="0.304054" stroke-linecap="round"/>
<path d="M5.76367 17.4526H22.4866" stroke="#223C81" stroke-width="0.304054" stroke-linecap="round"/>
<path d="M22.8916 17.4526H27.3511" stroke="#223C81" stroke-width="0.304054" stroke-linecap="round"/>
<path d="M5.35742 19.0742H9.10742" stroke="#223C81" stroke-width="0.304054" stroke-linecap="round"/>
<path d="M4.54688 20.6959H8.29688" stroke="#223C81" stroke-width="0.304054" stroke-linecap="round"/>
<path d="M8.80371 20.6959H21.7767" stroke="#223C81" stroke-width="0.304054" stroke-linecap="round"/>
<path d="M10.3242 19.0742L27.3512 19.0742" stroke="#223C81" stroke-width="0.304054" stroke-linecap="round"/>
</g>
</svg>
