<svg width="168" height="31" viewBox="0 0 168 31" fill="none" xmlns="http://www.w3.org/2000/svg">
<path d="M0 2.62201C0.142317 2.55331 0.127594 2.40118 0.171762 2.28831C0.39022 1.68521 0.792263 1.16577 1.32133 0.803087C1.85039 0.440399 2.47986 0.25271 3.12116 0.266425H27.3003C27.7307 0.248293 28.1601 0.319868 28.5613 0.476602C28.9626 0.633335 29.3268 0.871803 29.631 1.17686C29.9351 1.48191 30.1724 1.84688 30.328 2.24858C30.4835 2.65029 30.5538 3.07995 30.5343 3.51027C30.5343 6.20938 30.5343 8.90849 30.5343 11.6027V27.2674C30.5343 29.1224 29.6755 30.2119 27.8647 30.6584C27.8647 30.6584 27.8254 30.7026 27.8107 30.7222H2.56661C2.45374 30.5946 2.28688 30.5946 2.14457 30.5456C1.72835 30.4102 1.34538 30.1886 1.02065 29.8952C0.69593 29.6017 0.436768 29.2431 0.260096 28.8427C0.171762 28.6316 0.166854 28.4206 0 28.2587V2.62201ZM8.54883 17.0598C8.47798 17.0734 8.40886 17.0948 8.34271 17.1236C6.37972 18.1934 4.37256 19.278 2.38013 20.338C2.06605 20.5 2.1642 20.6275 2.29179 20.8288C3.4794 22.6642 4.6572 24.4995 5.8448 26.3349C5.90369 26.4233 5.92823 26.5607 6.09018 26.5754C6.27666 25.8687 6.46805 25.1621 6.64963 24.4554C6.70361 24.2296 6.78704 24.1217 7.05695 24.1266C8.7942 24.1609 10.5265 24.1855 12.2638 24.1904C14.8795 24.1904 17.5001 24.1904 20.1157 24.1904C20.6878 24.2276 21.2622 24.1763 21.8186 24.0382C26.0881 22.6347 28.2327 19.1308 28.375 15.1606C28.4575 13.4277 28.1189 11.7007 27.3882 10.1273C26.6574 8.55385 25.5564 7.18091 24.1791 6.12595C22.7275 4.90563 20.8832 4.25194 18.987 4.28565C14.8402 4.33963 10.6885 4.28565 6.54167 4.28565C6.19814 4.28565 6.05092 4.37889 5.98712 4.71751C5.09396 8.25089 4.18117 11.7794 3.27819 15.3078C2.94449 16.5691 2.63531 17.8352 2.30651 19.1259C2.37894 19.0997 2.44945 19.0686 2.51754 19.0326L8.83346 15.7299C8.9094 15.6896 8.97502 15.6323 9.02524 15.5625C9.07545 15.4927 9.1089 15.4123 9.123 15.3275C9.57449 13.6148 10.0456 11.8922 10.4824 10.1943C10.5609 9.88508 10.6787 9.80165 10.9731 9.80165C13.6493 9.80165 16.3272 9.80165 19.0067 9.80165C19.3751 9.79914 19.7382 9.89033 20.0618 10.0667C20.9119 10.5163 21.6111 11.2058 22.0726 12.0495C22.5342 12.8931 22.7377 13.8538 22.6578 14.8122C22.6038 16.6868 21.5095 17.9088 19.8998 18.7382C19.7689 18.8024 19.6233 18.8312 19.4778 18.8216C15.8266 18.8216 12.1804 18.8216 8.52919 18.8216C8.25438 18.8216 8.16604 18.7774 8.24456 18.4781C8.40043 18.0212 8.50735 17.5491 8.56355 17.0696L8.61753 17.0304C8.61753 17.0304 8.61753 17.0058 8.58808 17.0304C8.57379 17.0385 8.56059 17.0484 8.54883 17.0598Z" fill="#C00E0F"/>
<path d="M137.988 30.722C137.738 30.5159 137.414 30.5601 137.129 30.4865C134.857 29.9172 133.615 28.5235 133.316 26.2121C133.133 24.9745 133.263 23.7108 133.694 22.5364C134.42 20.6372 135.878 19.6557 137.841 19.3759C139.051 19.1731 140.294 19.3443 141.404 19.8667C141.944 20.1254 142.395 20.5387 142.7 21.0542C143.005 21.5696 143.15 22.1641 143.116 22.7621C143.116 23.0026 143.038 23.0566 142.812 23.0516C142.253 23.0516 141.693 23.0516 141.134 23.0516C140.918 23.0516 140.834 23.0124 140.82 22.767C140.756 21.6775 140.191 21.1279 139.097 21.0445C137.183 20.8924 136.049 21.7953 135.637 23.8221C135.402 24.8884 135.465 25.9987 135.819 27.0316C136.28 28.3321 137.325 28.9701 138.945 28.9946C139.459 28.9864 139.97 28.9239 140.471 28.8081C140.638 28.7738 140.731 28.7247 140.726 28.5333C140.726 27.8855 140.726 27.2426 140.726 26.5948C140.726 26.3985 140.658 26.3495 140.471 26.3544C139.956 26.3544 139.441 26.3544 138.925 26.3544C138.636 26.3544 138.488 26.3053 138.528 25.9765C138.577 25.5446 138.346 24.9656 138.621 24.7153C138.896 24.465 139.431 24.6466 139.853 24.6466C140.78 24.6466 141.708 24.6466 142.635 24.6466C142.9 24.6466 143.018 24.6858 143.013 24.9999C143.013 26.5997 143.013 28.1947 143.013 29.7945C143.013 30.0742 142.93 30.1675 142.66 30.2215C141.791 30.4393 140.907 30.587 140.015 30.6631C139.985 30.6631 139.956 30.7122 139.931 30.7417L137.988 30.722Z" fill="white"/>
<path d="M104.087 30.722C103.876 30.5453 103.596 30.5846 103.356 30.5257C102.522 30.356 101.76 29.9364 101.171 29.3227C100.582 28.709 100.194 27.9303 100.058 27.0905C99.7271 25.6096 99.771 24.0696 100.186 22.6099C100.375 21.8439 100.776 21.1465 101.343 20.5972C101.909 20.048 102.619 19.669 103.39 19.5035C104.475 19.2129 105.619 19.2248 106.698 19.5379C107.407 19.7177 108.056 20.0801 108.581 20.5889C109.107 21.0978 109.489 21.7354 109.691 22.4382C110.256 24.2133 110.216 26.1255 109.579 27.8757C108.97 29.5687 107.679 30.4079 105.937 30.6337C105.849 30.6337 105.726 30.5748 105.677 30.722H104.087ZM102.124 24.9557C102.084 25.7598 102.204 26.5639 102.477 27.3211C102.655 27.8418 103.001 28.2879 103.462 28.5878C103.923 28.8877 104.472 29.024 105.02 28.9749C105.56 29.0082 106.096 28.8548 106.537 28.5404C106.979 28.226 107.299 27.7695 107.444 27.2475C107.942 25.7495 107.928 24.1287 107.405 22.6394C107.272 22.1769 106.991 21.7706 106.606 21.4826C106.22 21.1946 105.751 21.0407 105.27 21.0444C104.121 20.9757 103.145 21.28 102.585 22.3891C102.231 23.196 102.076 24.0763 102.134 24.9557H102.124Z" fill="white"/>
<path d="M125.19 30.7214C125.087 30.5496 124.9 30.6085 124.758 30.5791C123.891 30.4662 123.081 30.0824 122.445 29.4822C121.808 28.8821 121.378 28.0963 121.215 27.2371C120.8 25.6079 120.864 23.8934 121.401 22.3001C122.01 20.5138 123.364 19.6354 125.175 19.3557C126.122 19.2042 127.091 19.2816 128.002 19.5814C128.679 19.7887 129.292 20.163 129.786 20.6699C130.28 21.1768 130.639 21.7999 130.828 22.4817C131.345 24.1773 131.323 25.9914 130.765 27.6738C130.176 29.4847 128.856 30.4122 126.991 30.6183C126.912 30.6183 126.809 30.5791 126.77 30.7018L125.19 30.7214ZM123.227 25.0876C123.208 25.7939 123.313 26.498 123.536 27.1684C123.686 27.7254 124.027 28.2117 124.5 28.542C124.973 28.8722 125.548 29.0253 126.122 28.9743C126.683 29.0112 127.239 28.8495 127.692 28.5174C128.145 28.1854 128.467 27.7042 128.6 27.1586C129.063 25.6797 129.036 24.0909 128.522 22.629C128.382 22.161 128.092 21.7521 127.696 21.4656C127.3 21.1791 126.822 21.0309 126.333 21.0438C125.18 20.9948 124.218 21.3236 123.683 22.4425C123.338 23.2794 123.187 24.1838 123.242 25.0876H123.227Z" fill="white"/>
<path d="M162.531 30.722C162.384 30.5453 162.158 30.5895 161.971 30.5551C161.204 30.4556 160.5 30.0787 159.992 29.4955C159.484 28.9123 159.207 28.1633 159.213 27.3898C159.213 27.0708 159.277 26.953 159.621 26.9727C160.146 27.0021 160.681 26.9727 161.206 26.9727C161.412 26.9727 161.486 27.0217 161.495 27.2377C161.474 27.602 161.581 27.9623 161.798 28.2557C162.015 28.549 162.328 28.7567 162.683 28.8424C163.664 29.0829 164.602 29.0731 165.367 28.3517C165.504 28.2363 165.607 28.0869 165.667 27.9186C165.727 27.7504 165.741 27.5693 165.708 27.3938C165.675 27.2182 165.596 27.0546 165.479 26.9194C165.363 26.7842 165.212 26.6824 165.043 26.6242C164.18 26.2548 163.293 25.9417 162.389 25.6869C162.016 25.5593 161.647 25.4219 161.275 25.2796C158.875 24.3521 159.253 21.437 160.597 20.323C162.07 19.1158 164.813 18.9195 166.398 19.9795C166.78 20.2296 167.094 20.57 167.314 20.9706C167.533 21.3712 167.65 21.8196 167.654 22.2762C167.654 22.5216 167.654 22.6492 167.335 22.6345C166.791 22.605 166.246 22.6345 165.701 22.6345C165.48 22.6345 165.382 22.6001 165.338 22.34C165.307 22.0073 165.161 21.6958 164.925 21.4586C164.69 21.2214 164.38 21.0733 164.047 21.0395C163.655 20.9727 163.252 21.0142 162.882 21.1595C162.512 21.3048 162.189 21.5484 161.947 21.864C161.814 22.0961 161.777 22.3707 161.843 22.6299C161.909 22.889 162.073 23.1124 162.3 23.2528C162.738 23.5194 163.212 23.7195 163.709 23.8466C164.494 24.0871 165.289 24.303 166.059 24.5729C168.611 25.4563 168.385 28.3958 166.884 29.6571C166.194 30.2074 165.361 30.5481 164.484 30.6386C164.391 30.6386 164.273 30.5846 164.214 30.7171L162.531 30.722Z" fill="white"/>
<path d="M69.1316 30.7219C68.9108 30.56 68.6409 30.5992 68.3857 30.5305C66.4963 30.0398 65.4412 28.7344 65.0928 26.8695C64.8348 25.5422 64.8649 24.1749 65.1811 22.8601C65.6718 20.8579 66.9576 19.739 68.9353 19.4004C69.6904 19.229 70.475 19.2346 71.2276 19.4168C71.9801 19.599 72.6804 19.9528 73.2735 20.4506C73.6045 20.7345 73.8712 21.0859 74.0557 21.481C74.2401 21.8762 74.3382 22.3062 74.3434 22.7424C74.3434 22.9779 74.2796 23.0466 74.0489 23.0417C73.4895 23.0417 72.93 23.0417 72.3705 23.0417C72.1644 23.0417 72.0712 23.0024 72.0319 22.7669C71.9957 22.3535 71.8201 21.9646 71.5339 21.6641C71.2476 21.3637 70.8678 21.1693 70.4566 21.1131C69.4751 20.9413 68.5427 21.1131 67.8851 21.9572C67.4838 22.535 67.2588 23.2169 67.2373 23.9201C67.0993 25.0577 67.203 26.2116 67.5416 27.3063C67.6556 27.6643 67.8503 27.9914 68.1107 28.2622C68.3712 28.5331 68.6903 28.7405 69.0435 28.8686C69.3968 28.9966 69.7747 29.0418 70.1482 29.0006C70.5217 28.9595 70.8807 28.8332 71.1977 28.6313C71.4653 28.4843 71.6918 28.2725 71.8564 28.0153C72.021 27.7581 72.1185 27.4637 72.1399 27.1591C72.1399 26.8941 72.2577 26.8499 72.4883 26.8548C73.0282 26.8548 73.5729 26.8548 74.1176 26.8548C74.417 26.8548 74.4562 26.9579 74.4268 27.2082C74.3614 27.8536 74.1251 28.47 73.742 28.9936C73.359 29.5173 72.8432 29.9292 72.2479 30.187C71.6739 30.4163 71.0812 30.5952 70.4763 30.7219H69.1316Z" fill="white"/>
<path d="M101.471 1.83166L100.49 5.35523C99.955 7.25442 99.42 9.15361 98.8998 11.0626C98.8164 11.3522 98.6986 11.4552 98.4091 11.4405C97.8644 11.4111 97.3196 11.4405 96.7749 11.4405C96.5001 11.4405 96.4019 11.3571 96.3332 11.097C95.499 8.0985 94.65 5.10004 93.8059 2.10157C93.7764 1.9936 93.7372 1.88564 93.6979 1.75804C93.5801 1.88564 93.6341 2.01323 93.6341 2.1261C93.6341 5.07059 93.6341 8.04943 93.6341 11.0135C93.6341 11.3571 93.5507 11.4699 93.2023 11.4405C92.7906 11.411 92.3773 11.411 91.9656 11.4405C91.622 11.4699 91.5583 11.3473 91.5583 11.0283C91.5583 7.96109 91.5583 4.89883 91.5583 1.83166C91.5583 1.4636 91.5583 1.10044 91.5583 0.732381C91.5583 0.526267 91.6122 0.452655 91.8331 0.452655C92.9029 0.452655 93.9776 0.452655 95.0524 0.452655C95.3223 0.452655 95.3468 0.604787 95.4008 0.796178C96.0748 3.36442 96.7618 5.93594 97.462 8.51073C97.4963 8.63342 97.5356 8.75611 97.5994 8.95731C98.3355 6.20913 99.0716 3.55909 99.7586 0.874698C99.8372 0.575342 99.9353 0.44284 100.274 0.452655C101.255 0.4821 102.276 0.452655 103.272 0.452655C103.537 0.452655 103.655 0.487007 103.655 0.801086C103.655 4.23305 103.655 7.66828 103.655 11.1068C103.655 11.3669 103.601 11.4699 103.317 11.4503C102.862 11.4233 102.407 11.4233 101.952 11.4503C101.619 11.4748 101.53 11.3718 101.535 11.043C101.535 8.53527 101.535 6.02755 101.535 3.51983V1.84147L101.471 1.83166Z" fill="white"/>
<path d="M69.735 3.22577V8.67307C69.735 9.4828 69.735 10.2876 69.735 11.0925C69.735 11.3722 69.6565 11.4458 69.3866 11.436C68.8958 11.436 68.4051 11.436 67.9143 11.436C67.7033 11.436 67.6052 11.4065 67.6052 11.1562C67.6052 7.67848 67.6052 4.20072 67.6052 0.722953C67.6052 0.516839 67.6591 0.448134 67.8751 0.448134C68.7731 0.448134 69.6712 0.448134 70.5693 0.448134C70.8441 0.448134 70.903 0.605173 70.9913 0.796565C72.2182 3.38281 73.4451 5.96905 74.6965 8.57982C74.8093 8.45714 74.7554 8.32463 74.7554 8.20686C74.7554 5.75312 74.7554 3.29938 74.7554 0.84564C74.7554 0.521746 74.8241 0.408874 75.1627 0.433411C75.6335 0.457946 76.1052 0.457946 76.576 0.433411C76.8067 0.433411 76.8754 0.507024 76.8754 0.737675C76.8754 4.19908 76.8754 7.66049 76.8754 11.1219C76.8754 11.3525 76.8067 11.4213 76.576 11.4213C75.678 11.4213 74.7799 11.4213 73.8818 11.4213C73.5874 11.4213 73.553 11.2348 73.4696 11.0581L69.9411 3.48095C69.9019 3.39262 69.8577 3.30429 69.8135 3.21595L69.735 3.22577Z" fill="white"/>
<path d="M90.2977 22.2517C90.2977 24.833 90.2977 27.4143 90.2977 29.9908C90.2977 30.4128 90.175 30.4815 89.8069 30.4815C89.3803 30.457 88.9527 30.457 88.5261 30.4815C88.2954 30.4815 88.1924 30.4471 88.1924 30.1772C88.1924 26.7322 88.1924 23.2855 88.1924 19.8372C88.1924 19.5722 88.2856 19.5231 88.5212 19.528C89.3603 19.528 90.1995 19.528 91.0387 19.528C91.1656 19.5123 91.294 19.5422 91.4009 19.6123C91.5079 19.6824 91.5864 19.7882 91.6227 19.9108C92.8299 22.4725 94.047 25.0293 95.3474 27.5959V27.1591C95.3474 24.7545 95.3474 22.3498 95.3474 19.9451C95.3474 19.6213 95.4162 19.5035 95.7548 19.528C96.1942 19.5599 96.6354 19.5599 97.0749 19.528C97.3791 19.528 97.4724 19.5918 97.4675 19.9059C97.4675 21.226 97.4675 22.5461 97.4675 23.8662C97.4675 25.9372 97.4675 28.0032 97.4675 30.0693C97.4675 30.4275 97.3644 30.5011 97.0307 30.4913C96.221 30.4668 95.4112 30.4668 94.6064 30.4913C94.4861 30.5097 94.3632 30.4828 94.2616 30.4157C94.16 30.3486 94.087 30.2461 94.0568 30.1282C92.879 27.5812 91.6865 25.0391 90.4989 22.497L90.3811 22.2369L90.2977 22.2517Z" fill="white"/>
<path d="M44.8544 5.93406C44.8544 4.23116 44.8544 2.53318 44.8544 0.830283C44.8544 0.526019 44.9329 0.437684 45.2421 0.447499C46.945 0.486759 48.6479 0.413147 50.3508 0.575094C52.6426 0.800838 53.8302 2.34669 54.2768 4.11829C54.6228 5.45884 54.5786 6.87037 54.1492 8.18659C53.4916 10.0907 52.0193 10.9642 50.1397 11.2636C48.4663 11.5286 46.7683 11.401 45.0851 11.4353C44.7759 11.4353 44.8544 11.2341 44.8544 11.0771C44.8495 9.36438 44.8544 7.64677 44.8544 5.93406ZM47.1364 5.93406C47.1364 7.09222 47.1364 8.24548 47.1364 9.40364C47.1364 9.61467 47.1364 9.72263 47.4161 9.71282C48.0001 9.68828 48.589 9.71282 49.173 9.68828C50.6796 9.60485 51.6267 8.85401 52.0046 7.49464C52.2772 6.47073 52.267 5.39207 51.9751 4.37348C51.8366 3.81941 51.5311 3.32129 51.1002 2.9465C50.6692 2.57171 50.1335 2.33835 49.5656 2.27799C48.8659 2.211 48.163 2.18315 47.4603 2.19456C47.1707 2.19456 47.1266 2.2878 47.1266 2.54299C47.1413 3.6668 47.1364 4.79552 47.1364 5.92424V5.93406Z" fill="white"/>
<path d="M76.6352 24.9995C76.6352 23.3113 76.6352 21.6281 76.6352 19.9399C76.6352 19.5767 76.7432 19.5031 77.072 19.5179C77.5721 19.5473 78.0735 19.5473 78.5736 19.5179C78.8779 19.5179 78.9319 19.616 78.9319 19.8908C78.9319 21.1128 78.9319 22.3446 78.9319 23.5469C78.9319 23.8413 79.0202 23.91 79.2999 23.9051C80.5824 23.9051 81.8633 23.9051 83.1425 23.9051C83.4419 23.9051 83.5057 23.807 83.5057 23.5273C83.5057 22.3249 83.5057 21.1226 83.5057 19.9203C83.5057 19.6307 83.5547 19.5031 83.8835 19.5179C84.4135 19.5473 84.9435 19.5179 85.4736 19.5179C85.7287 19.5179 85.7876 19.5915 85.7876 19.8368C85.7876 23.2819 85.7876 26.7286 85.7876 30.1769C85.7876 30.4075 85.7238 30.4812 85.4932 30.4713C84.9632 30.4713 84.4332 30.4419 83.9032 30.4713C83.54 30.4713 83.5057 30.3487 83.5057 30.0444C83.5057 28.6948 83.5057 27.3453 83.5057 25.9957C83.5057 25.7062 83.4615 25.5933 83.1327 25.5982C81.8567 25.6178 80.5775 25.6178 79.295 25.5982C79.0055 25.5982 78.9319 25.6718 78.9319 25.9614C78.9319 27.3404 78.9319 28.7194 78.9319 30.0984C78.9319 30.3732 78.8779 30.4861 78.5736 30.4713C78.0588 30.4419 77.5427 30.4419 77.0278 30.4713C76.6695 30.5008 76.6352 30.3536 76.6352 30.0493C76.6401 28.3758 76.6352 26.668 76.6352 24.9995Z" fill="white"/>
<path d="M78.6617 11.4548L80.3352 6.97916C81.1057 4.92293 81.8761 2.87651 82.6319 0.82028C82.6534 0.710352 82.7163 0.612892 82.8077 0.548044C82.899 0.483196 83.0118 0.455919 83.1226 0.471849C83.8588 0.471849 84.5949 0.471849 85.3261 0.471849C85.4246 0.455233 85.5257 0.476301 85.6094 0.530861C85.693 0.58542 85.7531 0.669473 85.7776 0.766298C87.0568 4.21462 88.3442 7.66294 89.6398 11.1113C89.7379 11.3664 89.7281 11.4744 89.4091 11.4597C88.8055 11.4597 88.2019 11.4597 87.6032 11.4597C87.5542 11.4689 87.5038 11.4683 87.4551 11.458C87.4063 11.4477 87.3601 11.4278 87.319 11.3995C87.2779 11.3712 87.2429 11.3351 87.2159 11.2932C87.1888 11.2513 87.1704 11.2045 87.1615 11.1554C86.9603 10.5763 86.7345 10.0022 86.5382 9.42309C86.4646 9.20225 86.3763 9.09429 86.1113 9.0992C84.8026 9.0992 83.4793 9.0992 82.1411 9.0992C81.8761 9.0992 81.7976 9.20716 81.7289 9.428C81.5572 10.0022 81.356 10.5665 81.1793 11.1407C81.1106 11.3664 81.0173 11.4695 80.7523 11.4597C80.0898 11.4155 79.4126 11.4548 78.6617 11.4548ZM85.915 7.40121L84.1925 2.32688C83.5594 3.94144 83.0147 5.55109 82.4749 7.16074C82.4111 7.34232 82.4994 7.38158 82.6662 7.38158L85.915 7.40121Z" fill="white"/>
<path d="M105.383 11.4549L105.942 9.94337C107.071 6.92037 108.209 3.89736 109.323 0.869448C109.335 0.801627 109.359 0.736713 109.396 0.67846C109.432 0.620207 109.48 0.569772 109.536 0.53007C109.592 0.490367 109.656 0.462186 109.723 0.447154C109.79 0.432123 109.859 0.430541 109.927 0.442498C110.648 0.471943 111.37 0.442498 112.091 0.442498C112.283 0.442498 112.41 0.467035 112.489 0.678057C113.799 4.21144 115.124 7.74482 116.415 11.2733C116.421 11.3205 116.421 11.3684 116.415 11.4156H114.108C113.917 11.4156 113.922 11.2537 113.878 11.1408C113.657 10.5519 113.441 9.963 113.244 9.3692C113.225 9.27073 113.168 9.18368 113.086 9.12678C113.003 9.06988 112.902 9.04767 112.803 9.06493C111.493 9.06493 110.182 9.06493 108.877 9.06493C108.824 9.05666 108.77 9.05922 108.719 9.07247C108.667 9.08572 108.618 9.10937 108.576 9.14198C108.534 9.17459 108.499 9.21548 108.473 9.26214C108.447 9.3088 108.431 9.36026 108.425 9.41337C108.254 9.98754 108.052 10.5568 107.871 11.1261C107.822 11.2831 107.797 11.4254 107.567 11.4254C106.875 11.4205 106.158 11.4549 105.383 11.4549ZM109.122 7.4013C110.192 7.4013 111.218 7.4013 112.243 7.4013C112.607 7.4013 112.607 7.30315 112.503 7.00379C112.091 5.83581 111.708 4.65311 111.306 3.48023C111.174 3.08272 111.026 2.69503 110.859 2.22391L109.122 7.4013Z" fill="white"/>
<path d="M55.7093 24.9698C55.7093 23.2816 55.7093 21.5934 55.7093 19.9053C55.7093 19.6059 55.7682 19.5176 56.0872 19.5176C58.2661 19.5176 60.4434 19.5176 62.619 19.5176C62.9135 19.5176 62.9969 19.601 62.9773 19.8856C62.9528 20.2222 62.9528 20.56 62.9773 20.8966C62.9773 21.1665 62.9135 21.2401 62.6387 21.2352C61.2253 21.2352 59.812 21.2352 58.4035 21.2352C58.0698 21.2352 57.9766 21.3137 57.9913 21.6474C57.9913 22.2903 58.0207 22.9381 57.9913 23.581C57.9913 23.9343 58.0993 23.9834 58.4133 23.9785C59.704 23.9785 60.9996 23.9785 62.2952 23.9785C62.5994 23.9785 62.7123 24.0521 62.6878 24.3662C62.6608 24.7026 62.6608 25.0407 62.6878 25.3771C62.6878 25.647 62.619 25.7304 62.3442 25.7255C61.0339 25.7255 59.7236 25.7255 58.4182 25.7255C58.0551 25.7255 57.9864 25.8335 57.9962 26.1623C57.9962 26.9131 57.9962 27.6345 57.9962 28.405C57.9962 28.7289 58.06 28.8271 58.4035 28.8222C59.8414 28.8222 61.2842 28.8222 62.727 28.8222C63.0313 28.8222 63.1834 28.8565 63.1441 29.2148C63.1049 29.573 63.2816 30.1962 63.0705 30.4465C62.8595 30.6968 62.2412 30.525 61.8093 30.53C59.9101 30.53 58.0109 30.53 56.1166 30.53C55.778 30.53 55.7093 30.4416 55.7142 30.1226C55.7191 28.3707 55.7093 26.6678 55.7093 24.9698Z" fill="white"/>
<path d="M150.169 24.9852C150.169 23.2823 150.169 21.5794 150.169 19.8814C150.169 19.5919 150.247 19.5183 150.532 19.5232C152.711 19.5232 154.888 19.5232 157.064 19.5232C157.329 19.5232 157.461 19.5575 157.437 19.8716C157.402 20.3035 157.579 20.8776 157.358 21.1426C157.137 21.4076 156.534 21.2212 156.102 21.2261C154.998 21.2261 153.893 21.2261 152.794 21.2261C152.529 21.2261 152.431 21.285 152.436 21.5647C152.436 22.2517 152.46 22.9437 152.436 23.6307C152.436 23.9154 152.529 23.9644 152.789 23.9644C154.109 23.9644 155.434 23.9644 156.759 23.9644C157.054 23.9644 157.186 24.0233 157.157 24.3472C157.124 24.6736 157.124 25.0024 157.157 25.3287C157.196 25.687 157.039 25.7311 156.73 25.7262C155.425 25.7262 154.114 25.7262 152.804 25.7262C152.519 25.7262 152.426 25.7949 152.436 26.0894C152.436 26.8648 152.465 27.6451 152.436 28.4204C152.436 28.7689 152.549 28.8228 152.863 28.8228C154.306 28.8228 155.748 28.8228 157.186 28.8228C157.515 28.8228 157.633 28.8965 157.599 29.2302C157.574 29.5667 157.574 29.9046 157.599 30.2411C157.599 30.4816 157.52 30.5356 157.294 30.5356C155.017 30.5356 152.735 30.5356 150.458 30.5356C150.159 30.5356 150.174 30.3932 150.174 30.1871C150.169 28.4155 150.169 26.7028 150.169 24.9852Z" fill="white"/>
<path d="M132.958 6.01243C132.926 5.26543 133.005 4.51779 133.193 3.79425C133.398 2.80582 133.934 1.9171 134.713 1.276C135.493 0.634906 136.469 0.280112 137.478 0.270677C138.867 0.197065 140.177 0.422809 141.261 1.37977C141.903 1.94954 142.297 2.74702 142.361 3.60285C142.385 3.84823 142.361 3.98073 142.042 3.96601C141.482 3.93656 140.923 3.96601 140.363 3.96601C140.177 3.96601 140.084 3.92675 140.035 3.72063C139.76 2.56738 139.215 2.08154 138.135 1.98829C137.616 1.90551 137.083 1.99865 136.623 2.25293C136.162 2.50721 135.8 2.90806 135.593 3.39183C135.237 4.35882 135.111 5.39555 135.225 6.41975C135.215 7.24368 135.407 8.0575 135.785 8.79006C136.007 9.18376 136.342 9.50149 136.748 9.70191C137.153 9.90234 137.609 9.9762 138.057 9.91387C138.496 9.92526 138.927 9.79486 139.285 9.54203C139.644 9.2892 139.912 8.92741 140.049 8.51033C140.123 8.28459 140.01 7.95579 140.216 7.85764C140.471 7.79268 140.736 7.77768 140.996 7.81347C141.35 7.81347 141.703 7.83801 142.056 7.81347C142.41 7.78893 142.434 7.92634 142.4 8.21098C142.305 9.08942 141.878 9.89856 141.207 10.4733C139.367 12.0928 135.986 11.9995 134.307 10.277C133.375 9.32007 133.076 8.10792 132.963 6.84179C132.938 6.57188 132.958 6.28724 132.958 6.01243Z" fill="white"/>
<path d="M65.966 0.452336C65.3623 1.49763 64.7882 2.47912 64.2189 3.46062C63.5466 4.61388 62.8792 5.76713 62.2019 6.89585C62.081 7.09553 62.0181 7.32495 62.0203 7.55836C62.0203 8.71653 62.0203 9.87469 62.0203 11.0329C62.0203 11.342 61.9369 11.4353 61.6278 11.4205C61.137 11.396 60.5972 11.4205 60.0868 11.4205C59.812 11.4205 59.7384 11.3469 59.7384 11.077C59.7384 9.91886 59.7384 8.76069 59.7384 7.60253C59.7426 7.34059 59.6747 7.08253 59.5421 6.85659C58.3676 4.86416 57.2012 2.86845 56.043 0.869472C55.9743 0.746785 55.9154 0.61919 55.8222 0.437614C56.7006 0.437614 57.5153 0.437614 58.3348 0.437614C58.5851 0.437614 58.5998 0.643728 58.6734 0.781137C59.4161 2.17486 60.1539 3.57186 60.8867 4.97212C60.926 5.05064 60.9701 5.12425 61.0389 5.23713C61.6817 3.98572 62.3688 2.78339 62.9135 1.53198C63.3061 0.65845 63.7969 0.260944 64.7784 0.442521C65.1732 0.480717 65.5706 0.484002 65.966 0.452336Z" fill="white"/>
<path d="M120.949 6.78336C120.949 5.37491 120.949 3.96646 120.949 2.55802C120.949 2.27829 120.895 2.18505 120.596 2.19487C119.698 2.19487 118.8 2.19487 117.906 2.19487C117.661 2.19487 117.568 2.14579 117.583 1.88569C117.602 1.5048 117.602 1.12315 117.583 0.742252C117.583 0.526323 117.622 0.437988 117.867 0.437988C120.674 0.437988 123.483 0.437988 126.293 0.437988C126.544 0.437988 126.588 0.541045 126.578 0.752067C126.578 1.12013 126.578 1.48819 126.578 1.85134C126.578 2.12125 126.519 2.20468 126.239 2.19977C125.356 2.19977 124.473 2.19977 123.594 2.19977C123.285 2.19977 123.207 2.27338 123.211 2.58256C123.211 5.38473 123.211 8.18199 123.211 10.9842C123.211 11.3473 123.123 11.4749 122.755 11.4455C122.255 11.416 121.754 11.416 121.253 11.4455C120.974 11.4455 120.91 11.3718 120.915 11.1019C120.959 9.65423 120.949 8.22125 120.949 6.78336Z" fill="white"/>
<path d="M50.5026 25.8335C50.5026 27.2567 50.5026 28.6799 50.5026 30.1031C50.5026 30.4122 50.4192 30.4957 50.1149 30.4809C49.6148 30.4514 49.1134 30.4514 48.6133 30.4809C48.2795 30.4809 48.201 30.3975 48.2059 30.0687C48.2059 27.296 48.2059 24.5282 48.2059 21.7554C48.2059 21.299 48.0783 21.2009 47.6465 21.2205C46.8122 21.2549 45.973 21.2205 45.1339 21.2205C44.8885 21.2205 44.8051 21.1567 44.8198 20.9064C44.8198 20.5433 44.8198 20.1752 44.8198 19.8072C44.8198 19.5912 44.859 19.5078 45.1044 19.5078C47.9115 19.5078 50.7186 19.5078 53.5256 19.5078C53.7906 19.5078 53.8446 19.5961 53.8348 19.8317C53.8152 20.1979 53.8152 20.5648 53.8348 20.931C53.8348 21.1616 53.7661 21.2254 53.5404 21.2205C52.6423 21.2205 51.7442 21.2205 50.8462 21.2205C50.5321 21.2205 50.4634 21.3138 50.4683 21.6131C50.5124 23.0216 50.5026 24.43 50.5026 25.8335Z" fill="white"/>
<path d="M112.381 24.9847C112.381 23.2868 112.381 21.5839 112.381 19.8859C112.381 19.5963 112.455 19.508 112.745 19.5178C113.259 19.5448 113.775 19.5448 114.29 19.5178C114.595 19.5178 114.678 19.5865 114.678 19.9006C114.678 22.1286 114.678 24.3566 114.678 26.5846C114.678 27.1833 114.678 27.7869 114.678 28.3856C114.678 28.6899 114.742 28.7831 115.061 28.7782C116.337 28.7782 117.618 28.7782 118.894 28.7782C119.237 28.7782 119.321 28.8764 119.296 29.1954C119.274 29.5467 119.274 29.8991 119.296 30.2505C119.296 30.4468 119.237 30.4958 119.046 30.4958C116.931 30.4958 114.811 30.4958 112.695 30.4958C112.411 30.4958 112.401 30.3633 112.401 30.1474C112.406 28.4151 112.381 26.7024 112.381 24.9847Z" fill="white"/>
<path d="M130.676 5.95386C130.676 7.65185 130.676 9.34984 130.676 11.0527C130.676 11.357 130.593 11.4551 130.283 11.4355C129.793 11.4078 129.301 11.4078 128.811 11.4355C128.468 11.4601 128.369 11.357 128.369 11.0086C128.369 7.84324 128.369 4.67792 128.369 1.5126C128.369 1.17889 128.222 0.751937 128.423 0.531101C128.625 0.310264 129.135 0.462396 129.479 0.462396C129.822 0.462396 130.391 0.285727 130.612 0.540915C130.833 0.796104 130.676 1.26722 130.676 1.6451V5.95386Z" fill="white"/>
<path d="M145.477 24.9553C145.477 23.2671 145.477 21.5838 145.477 19.8957C145.477 19.5816 145.565 19.5031 145.87 19.5178C146.4 19.5472 146.93 19.5178 147.455 19.5178C147.685 19.5178 147.759 19.5767 147.759 19.8122C147.759 23.2671 147.759 26.7252 147.759 30.1866C147.759 30.432 147.671 30.4762 147.45 30.4713C146.905 30.4713 146.36 30.4713 145.821 30.4713C145.546 30.4713 145.477 30.3977 145.482 30.1278C145.482 28.4101 145.477 26.668 145.477 24.9553Z" fill="white"/>
<path d="M33.7829 0.26608C34.0318 0.258118 34.2797 0.300614 34.5118 0.39101C34.7438 0.481406 34.9551 0.61783 35.133 0.792067C35.3109 0.966304 35.4517 1.17475 35.5469 1.40484C35.6422 1.63494 35.6898 1.88192 35.687 2.13092C35.693 2.38094 35.6485 2.6296 35.5561 2.86202C35.4638 3.09443 35.3255 3.30584 35.1496 3.4836C34.9737 3.66135 34.7637 3.8018 34.5323 3.89655C34.3008 3.9913 34.0526 4.03839 33.8026 4.03502C33.3018 4.03764 32.8205 3.84191 32.4637 3.49062C32.1068 3.13933 31.9036 2.66106 31.8985 2.16037C31.8945 1.91134 31.9405 1.66406 32.0337 1.43309C32.1269 1.20213 32.2654 0.992167 32.441 0.815603C32.6167 0.639039 32.8259 0.499448 33.0564 0.405067C33.2868 0.310686 33.5339 0.263428 33.7829 0.26608ZM32.2125 2.13092C32.2099 2.34027 32.2491 2.54803 32.3277 2.74208C32.4063 2.93612 32.5228 3.11255 32.6704 3.26105C32.818 3.40954 32.9937 3.52713 33.1872 3.60694C33.3808 3.68675 33.5883 3.72717 33.7977 3.72585C34.2203 3.72456 34.6252 3.55611 34.924 3.25728C35.2228 2.95845 35.3913 2.55353 35.3926 2.13092C35.3801 1.71278 35.2078 1.31532 34.9111 1.02043C34.6144 0.725544 34.2159 0.555671 33.7977 0.545807C33.378 0.548381 32.9764 0.71621 32.6797 1.01292C32.3829 1.30963 32.2151 1.71132 32.2125 2.13092Z" fill="#C00E0F"/>
<path d="M8.57334 17.0794C8.51715 17.5588 8.41022 18.031 8.25435 18.4878C8.17583 18.7872 8.25435 18.8314 8.53899 18.8314C12.1902 18.8314 15.8364 18.8314 19.4876 18.8314C19.6331 18.8409 19.7786 18.8122 19.9096 18.7479C21.5193 17.9186 22.6136 16.6966 22.6676 14.8219C22.7475 13.8636 22.544 12.9029 22.0824 12.0592C21.6209 11.2155 20.9217 10.526 20.0716 10.0764C19.748 9.90009 19.3849 9.8089 19.0165 9.81141C16.337 9.81141 13.6591 9.81141 10.9829 9.81141C10.6786 9.81141 10.5609 9.89484 10.4922 10.204C10.0554 11.9167 9.58428 13.6392 9.13279 15.3372C9.1187 15.422 9.08524 15.5025 9.03503 15.5723C8.98481 15.642 8.91919 15.6993 8.84325 15.7396L2.51751 19.0326C2.44943 19.0685 2.37892 19.0997 2.30649 19.1258C2.63529 17.8253 2.95428 16.569 3.28799 15.3127C4.19096 11.7842 5.10375 8.25574 5.99691 4.72236C6.08034 4.38374 6.20794 4.2905 6.55146 4.2905C10.6983 4.2905 14.85 4.33957 18.9968 4.2905C20.894 4.25423 22.7402 4.90622 24.1938 6.1259C25.5711 7.18085 26.6721 8.55379 27.4029 10.1272C28.1336 11.7006 28.4722 13.4277 28.3897 15.1606C28.2474 19.1503 26.1028 22.6346 21.8333 24.0382C21.2769 24.1762 20.7025 24.2275 20.1304 24.1903C17.5099 24.1903 14.8893 24.1903 12.2785 24.1903C10.5412 24.1903 8.8089 24.1609 7.07165 24.1265C6.80174 24.1265 6.71831 24.2296 6.66433 24.4553C6.48275 25.162 6.29136 25.8687 6.10488 26.5754C5.94293 26.5754 5.91839 26.4232 5.8595 26.3349C4.65717 24.4995 3.47938 22.6641 2.29177 20.8287C2.16417 20.6275 2.06602 20.4999 2.3801 20.3379C4.37254 19.2779 6.3797 18.1934 8.34269 17.1236C8.40884 17.0948 8.47796 17.0734 8.5488 17.0598L8.57334 17.0794Z" fill="#FDFDFD"/>
<path d="M8.54843 17.06C8.5626 17.0442 8.57928 17.0309 8.5978 17.0205C8.5978 17.0205 8.5978 17.0205 8.62742 17.0205L8.57311 17.06H8.54843Z" fill="#FDFDFD"/>
<path d="M33.1542 2.08138C33.1468 1.96372 33.1468 1.84571 33.1542 1.72804C33.1885 1.52193 33.0315 1.20294 33.2572 1.13424C33.4229 1.07229 33.6005 1.04893 33.7765 1.06594C33.9525 1.08295 34.1224 1.13987 34.2731 1.23239C34.3335 1.26938 34.3852 1.31901 34.4246 1.37786C34.464 1.43672 34.4902 1.50341 34.5014 1.57335C34.5125 1.64329 34.5085 1.71482 34.4894 1.78303C34.4703 1.85124 34.4367 1.91452 34.3909 1.96851C34.0915 2.26296 34.2829 2.45926 34.3614 2.73898C34.3958 2.85185 34.5577 2.99908 34.3614 3.08251C34.1651 3.16593 34.0964 3.01871 34.0081 2.86167C33.9197 2.70463 33.9786 2.23351 33.6008 2.31203C33.321 2.37092 33.5271 2.70463 33.4781 2.91074C33.4781 2.98926 33.4781 3.09232 33.3505 3.09232C33.2229 3.09232 33.164 3.03834 33.164 2.91074V2.08138H33.1542ZM33.4732 1.68387C33.3946 1.92925 33.5419 1.9636 33.7529 1.95379C33.9639 1.94397 34.1602 1.95379 34.1504 1.67406C34.1406 1.39433 33.9296 1.41887 33.7333 1.40415C33.537 1.38943 33.4143 1.43359 33.4732 1.68387Z" fill="#C00E0F"/>
</svg>
