<svg width="32" height="32" viewBox="0 0 32 32" fill="none" xmlns="http://www.w3.org/2000/svg">
<mask id="mask0_366_95" style="mask-type:alpha" maskUnits="userSpaceOnUse" x="0" y="0" width="32" height="32">
<rect width="32" height="32" fill="#D9D9D9"/>
</mask>
<g mask="url(#mask0_366_95)">
<rect x="1.6084" y="6" width="28.7838" height="17.7365" rx="1.21622" stroke="#223977" stroke-width="1.21622"/>
<path d="M1 22.3176H31V25.6622C31 26.2779 30.5009 26.7771 29.8851 26.7771H2.31757C1.58989 26.7771 1 26.1872 1 25.4595V22.3176Z" fill="#223977"/>
<path d="M20.7634 14.3434V11.9841C20.7634 11.5434 20.4319 11.0436 20.0202 10.877L17.0424 9.65161C16.3741 9.37752 15.6202 9.37752 14.952 9.65161L11.9741 10.877C11.5678 11.0436 11.2363 11.5434 11.2363 11.9841V14.3434C11.2363 16.9714 13.1343 19.4329 15.7272 20.153C15.9036 20.2014 16.0961 20.2014 16.2725 20.153C18.8654 19.4329 20.7634 16.9714 20.7634 14.3434ZM16.4008 15.2839V16.6973C16.4008 16.9177 16.219 17.1004 15.9998 17.1004C15.7806 17.1004 15.5989 16.9177 15.5989 16.6973V15.2839C15.0589 15.1119 14.6633 14.6067 14.6633 14.0102C14.6633 13.2685 15.262 12.6666 15.9998 12.6666C16.7376 12.6666 17.3364 13.2685 17.3364 14.0102C17.3364 14.6121 16.9408 15.1119 16.4008 15.2839Z" fill="#223C81"/>
</g>
</svg>
