<svg width="32" height="32" viewBox="0 0 32 32" fill="none" xmlns="http://www.w3.org/2000/svg">
<mask id="mask0_366_92" style="mask-type:alpha" maskUnits="userSpaceOnUse" x="0" y="0" width="32" height="32">
<rect width="32" height="32" fill="#D9D9D9"/>
</mask>
<g mask="url(#mask0_366_92)">
<rect x="1.6084" y="6" width="28.7838" height="17.7365" rx="1.21622" stroke="#223977" stroke-width="1.21622"/>
<path d="M1 22.3176H31V25.6622C31 26.2779 30.5009 26.7771 29.8851 26.7771H2.31757C1.58989 26.7771 1 26.1872 1 25.4595V22.3176Z" fill="#223977"/>
<path fill-rule="evenodd" clip-rule="evenodd" d="M12.817 15.0203C13.0409 15.0203 13.2224 15.2018 13.2224 15.4257V15.6023C13.4121 15.6514 13.5915 15.7263 13.7559 15.8235L13.8807 15.6986C14.0389 15.5401 14.2958 15.54 14.4542 15.6984L14.6119 15.8561C14.7703 16.0145 14.7702 16.2713 14.6117 16.4296L14.4868 16.5544C14.5839 16.7188 14.6589 16.8981 14.708 17.0878H14.8846C15.1085 17.0878 15.29 17.2693 15.29 17.4932V17.7162C15.29 17.9401 15.1085 18.1216 14.8846 18.1216H14.708C14.6589 18.3113 14.5839 18.4907 14.4868 18.655L14.6117 18.7798C14.7702 18.9381 14.7703 19.1949 14.6119 19.3533L14.4542 19.511C14.2958 19.6694 14.0389 19.6694 13.8807 19.5109L13.7559 19.3859C13.5894 19.4844 13.4098 19.5589 13.2224 19.6072V19.7838C13.2224 20.0077 13.0409 20.1892 12.817 20.1892H12.5941C12.3702 20.1892 12.1887 20.0077 12.1887 19.7838V19.6072C12.0013 19.5589 11.8217 19.4844 11.6552 19.3859L11.5304 19.5109C11.3722 19.6694 11.1153 19.6694 10.9569 19.511L10.7992 19.3533C10.6408 19.1949 10.6409 18.9381 10.7994 18.7798L10.9243 18.655C10.8259 18.4885 10.7514 18.309 10.7031 18.1216H10.5265C10.3026 18.1216 10.1211 17.9401 10.1211 17.7162V17.4932C10.1211 17.2693 10.3026 17.0878 10.5265 17.0878H10.7031C10.7522 16.8981 10.8272 16.7188 10.9243 16.5544L10.7994 16.4296C10.6409 16.2713 10.6408 16.0145 10.7992 15.8561L10.9569 15.6984C11.1153 15.54 11.3722 15.5401 11.5304 15.6986L11.6552 15.8235C11.8217 15.725 12.0013 15.6506 12.1887 15.6023V15.4257C12.1887 15.2018 12.3702 15.0203 12.5941 15.0203H12.817ZM13.4323 16.8697L13.4406 16.878C13.6236 17.063 13.7373 17.3173 13.7393 17.5975V17.612C13.738 17.8155 13.6766 18.0141 13.5628 18.1829C13.449 18.3517 13.2879 18.4831 13.0997 18.5607C12.9116 18.6384 12.7047 18.6587 12.505 18.6192C12.3053 18.5797 12.1217 18.4821 11.9773 18.3387L11.9721 18.3325C11.7836 18.1377 11.6792 17.8766 11.6814 17.6055C11.6836 17.3345 11.7921 17.0751 11.9836 16.8833C12.1752 16.6915 12.4344 16.5826 12.7054 16.5801C12.9765 16.5775 13.2372 16.6815 13.4323 16.8697Z" fill="#223C81"/>
<path fill-rule="evenodd" clip-rule="evenodd" d="M18.5741 10.7635C18.798 10.7635 18.9795 10.9451 18.9795 11.169V11.6081C19.2547 11.6793 19.515 11.788 19.7535 11.929L20.0638 11.6183C20.2221 11.4598 20.4789 11.4598 20.6373 11.6181L21.1249 12.1057C21.2833 12.2641 21.2832 12.5209 21.1247 12.6792L20.814 12.9896C20.955 13.2281 21.0637 13.4883 21.135 13.7635H21.5741C21.798 13.7635 21.9795 13.9451 21.9795 14.169V14.8581C21.9795 15.082 21.798 15.2635 21.5741 15.2635H21.135C21.0637 15.5388 20.955 15.799 20.814 16.0375L21.1247 16.3479C21.2832 16.5062 21.2833 16.763 21.1249 16.9214L20.6373 17.409C20.4789 17.5673 20.2221 17.5673 20.0638 17.4088L19.7535 17.098C19.5119 17.2409 19.2513 17.349 18.9795 17.4191V17.8581C18.9795 18.082 18.798 18.2635 18.5741 18.2635H17.8849C17.661 18.2635 17.4795 18.082 17.4795 17.8581V17.4191C17.2077 17.349 16.9471 17.2409 16.7055 17.098L16.3952 17.4088C16.2369 17.5673 15.98 17.5673 15.8216 17.409L15.3341 16.9214C15.1757 16.763 15.1758 16.5062 15.3343 16.3479L15.645 16.0375C15.5021 15.7959 15.394 15.5354 15.324 15.2635H14.8849C14.661 15.2635 14.4795 15.082 14.4795 14.8581V14.169C14.4795 13.9451 14.661 13.7635 14.8849 13.7635H15.324C15.3952 13.4883 15.504 13.2281 15.645 12.9896L15.3343 12.6792C15.1758 12.5209 15.1757 12.2641 15.3341 12.1057L15.8216 11.6181C15.98 11.4598 16.2369 11.4598 16.3952 11.6183L16.7055 11.929C16.9471 11.7862 17.2077 11.6781 17.4795 11.6081V11.169C17.4795 10.9451 17.661 10.7635 17.8849 10.7635H18.5741ZM19.284 13.447L19.296 13.459C19.5615 13.7275 19.7265 14.0965 19.7295 14.503V14.524C19.7275 14.8194 19.6384 15.1076 19.4733 15.3525C19.3082 15.5974 19.0745 15.7881 18.8014 15.9007C18.5284 16.0133 18.2282 16.0428 17.9385 15.9855C17.6487 15.9282 17.3823 15.7866 17.1727 15.5785L17.1652 15.5696C16.8918 15.2868 16.7403 14.908 16.7435 14.5147C16.7466 14.1214 16.9041 13.7451 17.182 13.4668C17.4599 13.1885 17.836 13.0305 18.2293 13.0268C18.6226 13.0231 19.0009 13.174 19.284 13.447Z" fill="#223C81"/>
<path fill-rule="evenodd" clip-rule="evenodd" d="M13.0813 9.04065C13.3052 9.04065 13.4867 9.22216 13.4867 9.44605V9.51996C13.6429 9.5604 13.7906 9.62212 13.926 9.70215L13.9781 9.64991C14.1364 9.49142 14.3933 9.49134 14.5517 9.64973L14.5803 9.67837C14.7387 9.83676 14.7386 10.0936 14.5801 10.2519L14.5279 10.3041C14.6079 10.4394 14.6696 10.5871 14.7101 10.7434H14.784C15.0079 10.7434 15.1894 10.9249 15.1894 11.1488V11.1893C15.1894 11.4132 15.0079 11.5947 14.784 11.5947H14.7101C14.6696 11.7509 14.6079 11.8986 14.5279 12.034L14.5801 12.0862C14.7386 12.2445 14.7387 12.5013 14.5803 12.6597L14.5517 12.6883C14.3933 12.8467 14.1364 12.8466 13.9781 12.6881L13.926 12.6359C13.7888 12.717 13.6409 12.7783 13.4867 12.8181V12.892C13.4867 13.1159 13.3052 13.2974 13.0813 13.2974H13.0407C12.8168 13.2974 12.6353 13.1159 12.6353 12.892V12.8181C12.481 12.7783 12.3332 12.717 12.196 12.6359L12.1438 12.6881C11.9856 12.8466 11.7287 12.8467 11.5703 12.6883L11.5417 12.6597C11.3833 12.5013 11.3834 12.2445 11.5419 12.0862L11.5941 12.034C11.513 11.8969 11.4517 11.749 11.4119 11.5947H11.338C11.1141 11.5947 10.9326 11.4132 10.9326 11.1893V11.1488C10.9326 10.9249 11.1141 10.7434 11.338 10.7434H11.4119C11.4524 10.5871 11.5141 10.4394 11.5941 10.3041L11.5419 10.2519C11.3834 10.0936 11.3833 9.83676 11.5417 9.67837L11.5703 9.64973C11.7287 9.49134 11.9856 9.49142 12.1438 9.64991L12.196 9.70215C12.3332 9.62105 12.481 9.55972 12.6353 9.51996V9.44605C12.6353 9.22216 12.8168 9.04065 13.0407 9.04065H13.0813ZM13.6595 10.5637L13.6663 10.5705C13.817 10.7229 13.9106 10.9324 13.9123 11.1631V11.175C13.9112 11.3426 13.8606 11.5062 13.7669 11.6452C13.6732 11.7842 13.5406 11.8924 13.3856 11.9563C13.2306 12.0203 13.0603 12.037 12.8958 12.0045C12.7314 11.9719 12.5802 11.8916 12.4612 11.7735L12.457 11.7684C12.3018 11.6079 12.2158 11.3929 12.2176 11.1697C12.2194 10.9465 12.3087 10.7329 12.4665 10.5749C12.6242 10.417 12.8377 10.3273 13.0609 10.3252C13.2841 10.3231 13.4988 10.4087 13.6595 10.5637Z" fill="#223C81"/>
</g>
</svg>
